<?xml version="1.0" encoding="UTF-8"?>
<svg width="38" height="38" version="1.1" viewBox="0 0 10.054 10.054" xml:space="preserve" xmlns="http://www.w3.org/2000/svg"><g><rect width="10.054" height="10.054" fill="#61119e" stroke-linecap="round" stroke-linejoin="round" stroke-miterlimit="1.1" stroke-width="1.058"/><path d="m2.354 2.3541-0.50212-0.50212c-0.223-0.223-0.6055-0.065016-0.6055 0.24958v1.626c0 0.1964 0.15807 0.35443 0.35444 0.35443h1.626c0.31604 0 0.47406-0.38249 0.25106-0.60549l-0.45486-0.45488c0.51246-0.51245 1.2214-0.82997 2.0041-0.82997 1.5654 0 2.8355 1.2701 2.8355 2.8355s-1.2701 2.8355-2.8355 2.8355c-0.60254 0-1.1608-0.18756-1.6201-0.50803-0.21414-0.14914-0.50803-0.097524-0.65868 0.11664-0.15057 0.21414-0.097524 0.50803 0.11664 0.65866 0.61436 0.42682 1.3602 0.67788 2.1621 0.67788 2.0882 0 3.7807-1.6924 3.7807-3.7807s-1.6924-3.7807-3.7807-3.7807c-1.0441 0-1.9893 0.42385-2.6731 1.1076zm2.6731 0.78273c-0.19642 0-0.35444 0.15807-0.35444 0.35443v1.5359c0 0.094487 0.036973 0.1846 0.10342 0.25106l1.0633 1.0633c0.13878 0.13878 0.3633 0.13878 0.50066 0 0.13735-0.13878 0.13878-0.3633 0-0.50064l-0.95995-0.95995v-1.3897c0-0.1964-0.15807-0.35443-0.35444-0.35443z" fill="#fff" stroke-width=".014768"/></g></svg>
