<?xml version="1.0" encoding="UTF-8"?>
<svg width="38" height="38" version="1.1" viewBox="0 0 10.054 10.054" xml:space="preserve" xmlns="http://www.w3.org/2000/svg"><g><rect width="10.054" height="10.054" fill="#a64deb" stroke-linecap="round" stroke-linejoin="round" stroke-miterlimit="1.1" stroke-width="1.058"/><path d="m2.0216 7.7535c-0.1403 0.11667-0.33673 0.14326-0.50361 0.064983-0.16689-0.078275-0.27174-0.24516-0.27174-0.42829v-4.726c0-0.18313 0.10633-0.35002 0.27174-0.42829 0.16541-0.078274 0.36183-0.053167 0.50361 0.064983l2.5328 2.1104v1.2317zm3.0054-1.3085v-3.7808c0-0.18313 0.10633-0.35002 0.27174-0.42829 0.16541-0.078274 0.36183-0.053167 0.50361 0.064983l2.8356 2.363c0.10781 0.090088 0.16984 0.22301 0.16984 0.36331 0 0.1403-0.062028 0.27322-0.16984 0.36331l-2.8356 2.363c-0.1403 0.11667-0.33673 0.14326-0.50361 0.064983-0.16689-0.078274-0.27174-0.24516-0.27174-0.42829z" stroke-width=".014769"/></g></svg>
